<svg width="1110" height="778" viewBox="0 0 1110 778" fill="none" xmlns="http://www.w3.org/2000/svg">
<g clip-path="url(#clip0_7829_71297)">
<rect width="1110" height="778" fill="#1B1B1B"/>
<path d="M375.516 698.497L375.517 698.5C414.579 752.21 474.723 779 555.745 779C637.81 779 698.308 751.512 737.021 696.406C775.68 641.379 794.929 557.403 794.929 444.646L794.929 319.833L794.929 319.823C793.888 210.88 774.117 130.192 735.449 77.9358C696.729 25.2627 636.408 -1 554.705 -1C472.299 -1 411.628 26.136 372.911 80.5486C334.25 134.884 315 217.821 315 329.194L315 457.647L315 457.66C316.388 564.189 336.511 644.518 375.516 698.497ZM662.542 135.735L662.545 135.739C685.277 172.593 696.719 231.646 696.719 313.072V470.642C695.679 549.632 683.548 607.301 660.47 643.812L660.467 643.818C637.787 680.242 602.938 698.472 555.745 698.472C507.878 698.472 472.156 679.218 448.428 640.706C424.995 601.764 413.21 541.488 413.21 459.727V305.796C413.903 228.89 425.514 172.078 447.908 135.213C470.235 98.4592 505.766 80.0481 554.705 80.0481C603.988 80.0481 639.868 98.632 662.542 135.735Z" fill="url(#paint0_linear_7829_71297)" stroke="url(#paint1_linear_7829_71297)" stroke-width="2"/>
</g>
<defs>
<linearGradient id="paint0_linear_7829_71297" x1="554.965" y1="0" x2="554.965" y2="778" gradientUnits="userSpaceOnUse">
<stop offset="0.177559" stop-color="#1F1F1F"/>
<stop offset="1" stop-color="#1C1C1C"/>
</linearGradient>
<linearGradient id="paint1_linear_7829_71297" x1="554.965" y1="0" x2="554.965" y2="778" gradientUnits="userSpaceOnUse">
<stop offset="0.400713" stop-color="#3D3D3D"/>
<stop offset="0.9375" stop-color="#1C1C1C"/>
</linearGradient>
<clipPath id="clip0_7829_71297">
<rect width="1110" height="778" fill="white"/>
</clipPath>
</defs>
</svg>
